<svg xmlns="http://www.w3.org/2000/svg" viewBox="0 0 181.84 122.56"><defs><style>.cls-1{fill:#fdf9f3;}.cls-2{fill:#fcf9f5;}.cls-3{fill:#fcf7f1;}.cls-4{fill:#f9f4ed;}.cls-5{fill:#f7f0ec;}.cls-6{fill:#fcf7f3;}.cls-7{fill:#fbf8f0;}.cls-8{fill:#fcfaf5;}.cls-9{fill:#fcf9f4;}.cls-10{fill:#fbf8f4;}.cls-11{fill:#f5ebe8;}</style></defs><title>logo_proto</title><g id="Calque_2" data-name="Calque 2"><g id="Calque_1-2" data-name="Calque 1"><path class="cls-1" d="M113.42,39.16V62.7c0,2.45.61,4.78-3.54,4.83-4.33,0-3.78-2.37-3.78-5,0-9.46,0-18.92.05-28.39,0-1.49-.91-3.67,1-4.32,2.17-.71,4.6-1,6.7.8,4.55,3.87,9.17,7.65,13.76,11.46.54.44,1.1.85,2.22,1.72,0-4.2.19-7.77-.06-11.31-.23-3.12,1.58-3,3.72-3s3.82,0,3.78,3.07q-.23,15.87,0,31.75c0,2.92-1.33,3.24-3.67,3.16-2.09-.08-4.39.16-3.72-2.94,2-9.42-2.43-15.43-10-20C117.83,43.14,116.06,41.32,113.42,39.16Z"/><path class="cls-2" d="M31.08,56.36v3.73c0,6.8,0,6.81-6.92,7.68a31.68,31.68,0,0,1-10.77-.45C4.31,65.35-1,56.77.16,46.41,2.13,29,19.35,26.5,29.31,30.59c2.39,1,2,2.31,1.29,4.13S29.47,38.19,27,37.1a18.32,18.32,0,0,0-1.75-.64c-6.21-1.92-11.58-.52-14.82,3.87S7,52.19,10.14,56.91c2.35,3.57,8.33,5.63,12.69,4.47.86-.23,1.34-.59,1.38-1.44a25.15,25.15,0,0,1,.05-2.61c.64-3.88-.91-5.49-4.8-4.78-3.46.63-4.37-1-4-4.19.17-1.4.68-2,2.06-2,3.74,0,7.47.05,11.21,0,1.79,0,2.4.78,2.34,2.49-.08,2.49,0,5,0,7.48Z"/><path class="cls-3" d="M108,107.38c0,3.73-.07,7.45,0,11.18.06,2.13-.81,2.77-2.89,2.73s-2.88-.56-2.87-2.76c.08-11.18,0-22.36.05-33.54,0-1-.42-2.49,1.18-2.71,1.38-.18,3.45-.94,4,.68,1,2.84,2,1,3,.35,6.81-4.09,15.43-1.56,17.86,5.15.94,2.56-.33,3.71-2.34,4.55a1.68,1.68,0,0,1-2.42-.86c-3-5.23-4.78-6.2-8.68-5.15s-6.81,5.11-7,9.57c-.07,1.86,0,3.73,0,5.59Z"/><path class="cls-4" d="M176.12,94.65c0-7.84,0-15.68,0-23.51,0-2,.48-2.92,2.67-3s3.09.73,3.08,3q-.09,23.7,0,47.4c0,2.15-.81,2.74-2.87,2.75s-2.88-.62-2.86-2.76C176.18,110.58,176.13,102.61,176.12,94.65Z"/><path class="cls-5" d="M75.11,20.79H69.66A99.49,99.49,0,0,0,69.52.23c5-.55,4.88-.54,5,4.82C74.62,10.19,73.92,15.38,75.11,20.79Z"/><path class="cls-6" d="M67.83,68.23A26.79,26.79,0,0,0,40.64,95.36c0,15.43,11.69,27.14,27.12,27.2a27.17,27.17,0,0,0,.07-54.33Zm.14,49c-11.85,0-21.25-9.62-21.26-21.81S56,73.55,67.8,73.55s21,9.58,21,21.93C88.84,107.49,79.48,117.26,68,117.27Z"/><path class="cls-7" d="M166.87,116.92c.08-10.58.06-21.16,0-31.74,0-2.72-2-3.94-4.41-2.86-1.87.86-.33,2.82-1.36,3.92-11-6.53-20.51-6.32-26.75.59-6.54,7.25-7.06,20.18-1.16,28.09a17.22,17.22,0,0,0,10.09,6.55c6.58,1.58,12.44-.14,18-4.36.19,2.41,0,4.47,3.17,4.21C167.88,121,166.86,118.66,166.87,116.92Zm-18.47-.14c-7.69,0-13.39-6.23-13.51-14.78-.13-10.39,5.75-16.37,15.08-15.32,6.95.78,11.72,7,11.74,15.35C161.73,110.87,156.4,116.78,148.4,116.78Z"/><path class="cls-8" d="M159,29.7c-3.79-.48-7.69-.08-11.53-.29-2.48-.13-3.25.85-3.2,3.24.13,5.21,0,10.43,0,15.64h0c0,5.34.07,10.68,0,16,0,2.13.49,3.22,2.89,3.1,3.35-.17,6.71.06,10.06-.09,9.76-.43,16.42-7.26,17-17.27C174.81,39,169,31,159,29.7Zm-5,31.16c-1.94-.06-2.61-.58-2.52-2.55.14-3.35,0-6.71,0-10.07s0-6.72,0-10.07c0-1.58.45-2.08,2.1-2.2C162,35.39,166.89,39.66,167,48,167.19,56,162,61.08,154,60.86Z"/><path class="cls-9" d="M58.27,55.05c-1-1.44-1.15-2.33.69-3.44,4.82-2.91,5.69-7.66,4.8-12.72-.93-5.27-4.62-7.94-9.7-9-4.2-.84-8.43-.27-12.64-.5-2.49-.14-3.2,1-3.14,3.35.14,5.22,0,10.44,0,15.67s.12,10.7,0,16c-.09,2.78,1.4,3,3.5,2.93s4,.07,3.83-3a71.4,71.4,0,0,1,0-7.46c0-1.11-.6-2.69,1.34-2.93,1.54-.18,2.9,0,3.73,1.69,1.09,2.23,2.41,4.34,3.62,6.51.42.76.76,1.7,1.88,1.4,1.9-.52,4.26-.66,5.49-1.89.82-.81-1.23-2.66-1.87-4.11A15,15,0,0,0,58.27,55.05Zm-9.9-7.25c-5.54-.08-1.46-4.42-3-6.2,1-2.19-1.83-6.05,3.4-5.77,5.52.29,8.26,2.07,8.2,6S54,47.88,48.37,47.8Z"/><path class="cls-10" d="M101.34,63.66c-3.79-10.5-7.7-20.95-11.45-31.47-.75-2.11-1.88-3-4.08-2.77S81.15,28.84,80,32c-3.52,9.28-7.27,18.48-10.89,27.71-.28.7-1,1.52.21,2.17,2.13,1.15,6.16.15,7-2a2.56,2.56,0,0,1,2.85-1.77c1.73.07,3.47,0,5.21,0,7.2,0,7.2,0,10,6.84a5,5,0,0,0,.41,1c1.73,2.55,4.38,1.53,6.42,1.09S101.74,64.78,101.34,63.66ZM88.84,51.52c-9.65,1-9.65,1-6.24-7.81.62-1.61,1.24-3.23,2.25-5.88l4.58,13.32C89,51.4,88.94,51.51,88.84,51.52Z"/><path class="cls-11" d="M87.45,13.44c3.29.06,3.15-1.42,2.24-3.65a5.41,5.41,0,0,0-5.17-3.6C80.61,6.1,78,9.42,78.05,14.12s2.62,7.33,6.74,7.1c1.62-.08,3.13-.43,4-2.09-.37-.18-.61-.4-.8-.37-3,.58-5.17-.74-5.1-3.73C83,11.81,85.92,13.42,87.45,13.44ZM83,9.69C83.17,8.52,83.13,7,84.82,7c1.87,0,1.79,1.63,2,2.93.25,1.73-.92,1.63-2.07,1.69C83.24,11.74,82.7,11.07,83,9.69Z"/></g></g></svg>